<svg xmlns="http://www.w3.org/2000/svg" width="16.826" height="16.826" viewBox="0 0 16.826 16.826"><defs><style>.a{fill:none;}.b{fill:#191919;}</style></defs><path class="a" d="M0,0H16.826V16.826H0Z"/><path class="b" d="M12.435,8.052V9.21h2.609V8.052Zm-1.3,3.826c.626.411,1.441.955,2.087,1.383.261-.307.522-.619.783-.926-.646-.428-1.461-.972-2.087-1.389C11.652,11.259,11.391,11.571,11.131,11.878ZM14,4.926c-.261-.307-.522-.619-.783-.926-.646.428-1.461.972-2.087,1.389.261.307.522.619.783.926C12.539,5.9,13.354,5.36,14,4.926ZM3.3,6.894A1.241,1.241,0,0,0,2,8.052V9.21a1.241,1.241,0,0,0,1.3,1.158h.652v2.315h1.3V10.367h.652L9.174,12.1V5.158L5.913,6.894Zm7.5,1.737a2.477,2.477,0,0,0-.978-1.939v3.872A2.457,2.457,0,0,0,10.8,8.631Z" transform="translate(-0.109 -0.218)"/></svg>