<svg xmlns="http://www.w3.org/2000/svg" width="13.325" height="13.325" viewBox="0 0 13.325 13.325"><defs><style>.a{fill:#191919;fill-rule:evenodd;}</style></defs><path class="a" d="M6.662,12.492a5.83,5.83,0,1,0-5.83-5.83A5.83,5.83,0,0,0,6.662,12.492Zm6.662-5.83A6.662,6.662,0,1,1,6.662,0,6.662,6.662,0,0,1,13.325,6.662Z"/><path class="a" d="M16.166,6.75a.416.416,0,0,1,.416.416v4.339l2.7,1.546a.416.416,0,0,1-.413.723L15.96,12.108a.416.416,0,0,1-.21-.362V7.166A.416.416,0,0,1,16.166,6.75Z" transform="translate(-9.92 -4.252)"/></svg>