<svg xmlns="http://www.w3.org/2000/svg" width="12.194" height="15.52" viewBox="0 0 12.194 15.52"><g transform="translate(-5.625 -2.25)"><path d="M12.9,18.365l-1.99-1.99-.781.781L12.9,19.928l4.988-4.988-.781-.787Z" transform="translate(-2.283 -6.039)"/><path d="M16.71,3.913H15.048V3.359A1.109,1.109,0,0,0,13.939,2.25H9.5A1.109,1.109,0,0,0,8.4,3.359v.554H6.734A1.109,1.109,0,0,0,5.625,5.021v11.64A1.109,1.109,0,0,0,6.734,17.77H16.71a1.109,1.109,0,0,0,1.109-1.109V5.021A1.109,1.109,0,0,0,16.71,3.913ZM9.5,3.359h4.434V5.576H9.5Zm7.206,13.3H6.734V5.021H8.4V6.684h6.651V5.021H16.71Z"/></g></svg>